Coordinates
version=1
nRows=30
nColumns=38
inDegrees=no

Units are S.I. units (second, meters, Newtons, ...)
If the header above contains a line with 'inDegrees', this indicates whether rotational values are in degrees (yes) or radians (no).

endheader
time	pelvis_tilt	pelvis_list	pelvis_rotation	pelvis_tx	pelvis_ty	pelvis_tz	hip_flexion_r	hip_adduction_r	hip_rotation_r	knee_angle_r	ankle_angle_r	subtalar_angle_r	mtp_angle_r	hip_flexion_l	hip_adduction_l	hip_rotation_l	knee_angle_l	ankle_angle_l	subtalar_angle_l	mtp_angle_l	lumbar_extension	lumbar_bending	lumbar_rotation	arm_flex_r	arm_add_r	arm_rot_r	elbow_flex_r	pro_sup_r	wrist_flex_r	wrist_dev_r	arm_flex_l	arm_add_l	arm_rot_l	elbow_flex_l	pro_sup_l	wrist_flex_l	wrist_dev_l
2.75	-0.177588	-0.184242	-0.0895016	0.773034	0.886574	-0.297133	0.694847	0.209966	-0.293557	-0.991834	0.611177	0.1	-0.00419479	0.412999	-0.304395	-0.105571	-2.12605	-0.106173	0.1	-0.00818598	-0.193426	0.190336	0.132228	-0.464787	-0.511622	-0.0645044	1.68376	1.47921	0.0133049	-0.0278198	-0.207852	-0.389853	-0.0224857	1.79144	2.06656	0.00417504	-0.00403576
2.76	-0.178854	-0.180252	-0.0867007	0.768994	0.886883	-0.297297	0.642578	0.213876	-0.266928	-1.0028	0.673308	0.1	-0.00419479	0.530825	-0.288733	-0.0739131	-2.17601	-0.0672244	0.1	-0.00818598	-0.196099	0.181305	0.148596	-0.385156	-0.535581	-0.0399059	1.70177	1.48288	0.0133049	-0.0278198	-0.255154	-0.383021	-0.0361669	1.76941	2.09708	0.00417504	-0.00403576
2.77	-0.182482	-0.168905	-0.0780354	0.76526	0.887626	-0.29782	0.582673	0.207227	-0.245412	-0.994977	0.72786	0.1	-0.00419479	0.651959	-0.261127	-0.0417855	-2.20243	-0.0247833	0.1	-0.00818598	-0.19411	0.164882	0.159093	-0.311651	-0.558612	-0.0192221	1.73026	1.48447	0.0133049	-0.0278198	-0.302152	-0.381013	-0.0491222	1.75578	2.12488	0.00417504	-0.00403576
2.78	-0.188431	-0.150428	-0.0657301	0.762081	0.888761	-0.298568	0.515798	0.190646	-0.22985	-0.968828	0.76999	0.1	-0.00419479	0.77175	-0.224009	-0.0137299	-2.20493	0.0211731	0.1	-0.00818598	-0.187593	0.141071	0.165699	-0.245529	-0.581323	-0.00274656	1.76883	1.48301	0.0133049	-0.0278198	-0.349453	-0.383244	-0.0614923	1.7501	2.14575	0.00417504	-0.00403576
2.79	-0.196465	-0.125659	-0.0522014	0.759674	0.890307	-0.299415	0.442958	0.165442	-0.220758	-0.925658	0.795281	0.1	-0.00419479	0.885555	-0.180836	0.00647594	-2.18389	0.0704361	0.1	-0.00818598	-0.17705	0.110467	0.170557	-0.187282	-0.604281	0.00953681	1.81601	1.47818	0.0133049	-0.0278198	-0.397617	-0.388678	-0.0737971	1.75131	2.15662	0.00417504	-0.00403576
2.8	-0.20615	-0.0959664	-0.039646	0.758204	0.892324	-0.300308	0.365491	0.133448	-0.218396	-0.867621	0.799922	0.1	-0.00419479	0.989216	-0.135548	0.0164492	-2.14026	0.122567	0.1	-0.00818598	-0.163257	0.0743013	0.17566	-0.136897	-0.627831	0.0177577	1.86962	1.47045	0.0133049	-0.0278198	-0.446968	-0.395994	-0.086745	1.75802	2.15643	0.00417504	-0.00403576
2.81	-0.216863	-0.0631855	-0.0297442	0.757742	0.894879	-0.301236	0.28506	0.0968947	-0.222687	-0.797772	0.780902	0.1	-0.00419479	1.07939	-0.0920182	0.0154497	-2.07551	0.176887	0.1	-0.00818598	-0.14717	0.0344251	0.18261	-0.0941335	-0.651991	0.022016	1.92719	1.46098	0.0133049	-0.0278198	-0.497446	-0.403786	-0.100995	1.76863	2.14633	0.00417504	-0.00403576
2.82	-0.227875	-0.0294863	-0.0235015	0.75824	0.89801	-0.302184	0.203651	0.0582486	-0.233093	-0.720162	0.736386	0.1	-0.00419479	1.15371	-0.0535555	0.00424531	-1.99146	0.232455	0.1	-0.00818598	-0.129837	-0.00680311	0.192465	-0.0587293	-0.676448	0.0223549	1.98628	1.4513	0.0133049	-0.0278198	-0.548562	-0.410728	-0.116959	1.78163	2.12919	0.00417504	-0.00403576
2.83	-0.238455	0.00281988	-0.0212255	0.759543	0.901699	-0.303109	0.123566	0.020038	-0.248438	-0.639875	0.666187	0.1	-0.00419479	1.21081	-0.0225424	-0.0153146	-1.89013	0.28811	0.1	-0.00818598	-0.112299	-0.0467327	0.205641	-0.0304898	-0.700605	0.0188321	2.04473	1.44284	0.0133049	-0.0278198	-0.599454	-0.415694	-0.134697	1.79575	2.10867	0.00417504	-0.00403576
2.84	-0.247979	0.0315048	-0.0226158	0.761433	0.905851	-0.303947	0.0473767	-0.0152973	-0.266703	-0.562912	0.572194	0.1	-0.00419479	1.25029	-0.000260974	-0.0408378	-1.77373	0.342523	0.1	-0.00818598	-0.0954936	-0.0826997	0.2219	-0.00928833	-0.723675	0.0116311	2.10072	1.43664	0.0133049	-0.0278198	-0.649009	-0.417811	-0.153936	1.81007	2.08836	0.00417504	-0.00403576
2.85	-0.256	0.0546417	-0.0269304	0.763667	0.910282	-0.304635	-0.0222301	-0.0455508	-0.284996	-0.495846	0.458577	0.1	-0.00419479	1.2726	0.0130759	-0.0698915	-1.64472	0.394287	0.1	-0.00818598	-0.0801999	-0.112327	0.240434	0.00498784	-0.744765	0.00115615	2.15278	1.43329	0.0133049	-0.0278198	-0.696008	-0.416475	-0.174164	1.82405	2.07104	0.00417504	-0.00403576
2.86	-0.262244	0.0707966	-0.0331858	0.766004	0.914745	-0.305123	-0.082715	-0.0688981	-0.299784	-0.445274	0.331623	0.1	-0.00419479	1.27884	0.0181332	-0.100372	-1.50594	0.441989	0.1	-0.00818598	-0.067045	-0.1338	0.260012	0.0125013	-0.762965	-0.0119233	2.19968	1.43292	0.0133049	-0.0278198	-0.739267	-0.411351	-0.194765	1.83745	2.05824	0.00417504	-0.00403576
2.87	-0.26653	0.0791757	-0.0403409	0.76826	0.918994	-0.305387	-0.132035	-0.0840738	-0.307481	-0.417161	0.199197	0.1	-0.00419479	1.27061	0.0161771	-0.130719	-1.36084	0.484304	0.1	-0.00818598	-0.0565735	-0.146097	0.279172	0.0135051	-0.777422	-0.026687	2.24033	1.43546	0.0133049	-0.0278198	-0.777732	-0.40239	-0.215133	1.85029	2.0502	0.00417504	-0.00403576
2.88	-0.268641	0.0797402	-0.0474137	0.770345	0.922844	-0.305423	-0.16898	-0.0905544	-0.305296	-0.416179	0.0698324	0.1	-0.00419479	1.24972	0.00883503	-0.15993	-1.21361	0.519962	0.1	-0.00818598	-0.0493313	-0.1491	0.296397	0.00834566	-0.787427	-0.0420364	2.2738	1.44075	0.0133049	-0.0278198	-0.810537	-0.389861	-0.234713	1.8627	2.04609	0.00417504	-0.00403576
2.89	-0.268223	0.0732148	-0.0535243	0.772259	0.926199	-0.305259	-0.193398	-0.0887084	-0.29212	-0.445154	-0.0484353	0.1	-0.00419479	1.21812	-0.00207069	-0.187417	-1.06926	0.547709	0.1	-0.00818598	-0.0459067	-0.14362	0.310247	-0.00256524	-0.792491	-0.0568134	2.29923	1.44865	0.0133049	-0.0278198	-0.837017	-0.3744	-0.252986	1.87488	2.0444	0.00417504	-0.00403576
2.9	-0.264789	0.0610041	-0.057889	0.774054	0.929015	-0.304993	-0.206197	-0.079853	-0.269101	-0.504727	-0.149233	0.1	-0.00419479	1.17778	-0.0146297	-0.212778	-0.933366	0.566325	0.1	-0.00818598	-0.0468758	-0.131281	0.319453	-0.0187836	-0.792404	-0.0699453	2.3159	1.45904	0.0133049	-0.0278198	-0.856691	-0.357046	-0.269402	1.88697	2.04347	0.00417504	-0.00403576
2.91	-0.257873	0.0450323	-0.0598103	0.775788	0.931259	-0.30479	-0.209093	-0.0661622	-0.239537	-0.593318	-0.228716	0.1	-0.00419479	1.13075	-0.0269577	-0.235622	-0.811684	0.574808	0.1	-0.00818598	-0.0526502	-0.114291	0.322981	-0.039852	-0.787243	-0.0805882	2.32326	1.47176	0.0133049	-0.0278198	-0.869238	-0.33924	-0.283315	1.89898	2.04182	0.00417504	-0.00403576
2.92	-0.247233	0.027521	-0.0586958	0.77749	0.932868	-0.304829	-0.204129	-0.0504179	-0.208037	-0.707386	-0.285891	0.1	-0.00419479	1.0792	-0.0373252	-0.255501	-0.709542	0.572658	0.1	-0.00818598	-0.0632657	-0.0951359	0.320084	-0.0652925	-0.777349	-0.0882361	2.32099	1.48662	0.0133049	-0.0278198	-0.874445	-0.322727	-0.293966	1.91069	2.03847	0.00417504	-0.00403576
2.93	-0.233082	0.0107581	-0.0541057	0.779123	0.933759	-0.305284	-0.193099	-0.0356778	-0.179424	-0.842002	-0.32222	0.1	-0.00419479	1.02547	-0.0442505	-0.271869	-0.631189	0.560162	0.1	-0.00818598	-0.0782338	-0.0762554	0.310344	-0.0945888	-0.763252	-0.0927741	2.30903	1.50333	0.0133049	-0.0278198	-0.87217	-0.309348	-0.300568	1.92162	2.033	0.00417504	-0.00403576
2.94	-0.216176	-0.00321952	-0.0458307	0.780593	0.933835	-0.306255	-0.177069	-0.0248933	-0.157602	-0.991545	-0.340717	0.1	-0.00419479	0.971984	-0.0465884	-0.284196	-0.579302	0.53874	0.1	-0.00818598	-0.0965169	-0.0597826	0.293695	-0.127166	-0.745596	-0.0944609	2.28768	1.52155	0.0133049	-0.0278198	-0.862297	-0.300756	-0.302455	1.93098	2.02554	0.00417504	-0.00403576
2.95	-0.197749	-0.0128132	-0.0339473	0.781772	0.933009	-0.307755	-0.156124	-0.0204995	-0.144743	-1.15033	-0.344933	0.1	-0.00419479	0.921164	-0.0436058	-0.292072	-0.554762	0.51128	0.1	-0.00818598	-0.116686	-0.0473223	0.270416	-0.162372	-0.725069	-0.0938423	2.2576	1.54082	0.0133049	-0.0278198	-0.8447	-0.298145	-0.299238	1.93775	2.01664	0.00417504	-0.00403576
2.96	-0.179296	-0.0170064	-0.0188318	0.782519	0.931215	-0.309715	-0.129387	-0.0240902	-0.14098	-1.31307	-0.338193	0.1	-0.00419479	0.875112	-0.0350264	-0.295264	-0.556675	0.482324	0.1	-0.00818598	-0.137195	-0.0398293	0.241107	-0.199484	-0.70235	-0.0916279	2.21985	1.56059	0.0133049	-0.0278198	-0.819236	-0.302061	-0.290914	1.94084	2.00712	0.00417504	-0.00403576
2.97	-0.162305	-0.0154391	-0.00113983	0.782701	0.928502	-0.312026	-0.0952622	-0.0362216	-0.144593	-1.47505	-0.323192	0.1	-0.00419479	0.835277	-0.0210434	-0.293735	-0.582497	0.457841	0.1	-0.00818598	-0.156673	-0.0375797	0.20665	-0.237756	-0.678076	-0.088583	2.17588	1.58017	0.0133049	-0.0278198	-0.785775	-0.312353	-0.277882	1.93933	1.99797	0.00417504	-0.00403576
2.98	-0.147983	-0.00841217	0.0182429	0.782221	0.925162	-0.314557	-0.0518279	-0.0563491	-0.152573	-1.63225	-0.301894	0.1	-0.00419479	0.802104	-0.00231579	-0.287627	-0.62815	0.444351	0.1	-0.00818598	-0.174146	-0.040199	0.168196	-0.276533	-0.652823	-0.085475	2.12749	1.59878	0.0133049	-0.0278198	-0.744272	-0.328259	-0.26087	1.93271	1.99023	0.00417504	-0.00403576
2.99	-0.137068	0.0031237	0.0382534	0.781026	0.921751	-0.317135	0.00270809	-0.0828691	-0.161345	-1.78108	-0.275645	0.1	-0.00419479	0.774793	0.0200595	-0.27721	-0.688134	0.447382	0.1	-0.00818598	-0.189113	-0.0467353	0.127162	-0.315402	-0.627087	-0.0830677	2.07678	1.61567	0.0133049	-0.0278198	-0.694882	-0.348599	-0.240812	1.92116	1.98488	0.00417504	-0.00403576
3	-0.129772	0.0176748	0.0577156	0.779099	0.918734	-0.319557	0.0695606	-0.113235	-0.167518	-1.9183	-0.245396	0.1	-0.00419479	0.751323	0.0445694	-0.262761	-0.755823	0.469846	0.1	-0.00818598	-0.201494	-0.0557148	0.0852237	-0.354302	-0.601275	-0.082118	2.02605	1.63022	0.0133049	-0.0278198	-0.638099	-0.371989	-0.218714	1.90572	1.98271	0.00417504	-0.00403576
3.01	-0.125856	0.0332812	0.0754187	0.776483	0.916192	-0.321701	0.149019	-0.144191	-0.168532	-2.04077	-0.21193	0.1	-0.00419479	0.728833	0.0692654	-0.244691	-0.824195	0.511277	0.1	-0.00818598	-0.211486	-0.0652581	0.0442426	-0.393544	-0.575723	-0.083326	1.97766	1.64206	0.0133049	-0.0278198	-0.574885	-0.397031	-0.195577	1.8883	1.98413	0.00417504	-0.00403576
3.02	-0.124758	0.0477047	0.0902327	0.773312	0.914001	-0.323577	0.240282	-0.172136	-0.16314	-2.1455	-0.176003	0.1	-0.00419479	0.704264	0.0917851	-0.223736	-0.886794	0.568265	0.1	-0.00818598	-0.219334	-0.0732332	0.0061003	-0.433689	-0.550728	-0.0872304	1.93381	1.65101	0.0133049	-0.0278198	-0.506725	-0.422439	-0.172349	1.87156	1.98913	0.00417504	-0.00403576
3.03	-0.125819	0.0586756	0.101248	0.769798	0.912106	-0.325149	0.341467	-0.193625	-0.151618	-2.22972	-0.138419	0.1	-0.00419479	0.674985	0.109588	-0.20098	-0.938515	0.635536	0.1	-0.00818598	-0.225174	-0.0774945	-0.0275658	-0.475348	-0.526579	-0.0940864	1.89633	1.65702	0.0133049	-0.0278198	-0.435565	-0.44712	-0.149895	1.85848	1.99706	0.00417504	-0.00403576
3.04	-0.128438	0.0641704	0.10793	0.766212	0.910581	-0.326272	0.449788	-0.205937	-0.135654	-2.29114	-0.100027	0.1	-0.00419479	0.639191	0.120348	-0.177779	-0.975933	0.707002	0.1	-0.00818598	-0.228934	-0.0761934	-0.0556322	-0.518964	-0.503571	-0.103793	1.86644	1.66017	0.0133049	-0.0278198	-0.363638	-0.470227	-0.12894	1.85195	2.00653	0.00417504	-0.00403576
